<?xml version="1.0" encoding="UTF-8"?>
<svg id="_栝鍣_1" data-name="栝鍣 1" xmlns="http://www.w3.org/2000/svg" viewBox="0 0 7562.24 2641.32">
  <defs>
    <style>
      .cls-1, .cls-2 {
        stroke-width: 0px;
      }

      .cls-2 {
        fill: #4c4be4;
      }
    </style>
  </defs>
  <rect class="cls-1" width="7562.24" height="2641.32"/>
  <path id="path1" class="cls-2" d="m7177.48,1400.83c-113.69-24.24-206.21-58.28-286.66-105.46-211.5-124.06-322.55-312.8-307.98-523.45l1.82-26.28-33.78-23.16c-42.49-29.12-92.85-66.41-162.07-119.99-29.75-23.03-63.26-48.72-74.47-57.09l-20.38-15.22-4.94,11.92c-20.11,48.51-56.56,108.85-89.25,147.75-74.15,88.23-168.88,141.58-268.7,151.34-31.54,3.08-88.98-5.81-116.77-18.08-59.41-26.23-103.44-73.76-125.34-135.28-25.77-72.39-17.59-165.58,20.97-238.69,58.31-110.58,178.36-180.41,309.94-180.29,50.83.05,134.98,19.68,178.73,41.69l12.03,6.05,5.27-49.74c17.31-163.19-15.32-346.9-88.7-499.39-28.61-59.45-54.77-96.49-89.52-126.73-12.9-11.23-28.99-25.28-35.74-31.22-48.39-42.58-6.08-122.21,55.22-103.93,6.56,1.96,23.15,11.11,36.85,20.35,72.93,49.13,130.88,120.58,172.23,212.33,31.83,70.63,57.6,156.55,74.04,246.83,22.58,124.07,24.5,242.8,5.79,358.07l-7.9,48.66,29.21,21.16c16.06,11.64,61.28,45.88,100.48,76.08,85.18,65.63,157.14,118.91,158.82,117.59.67-.53,7.53-12.3,15.26-26.17,49.13-88.13,124.01-162.27,211.01-208.91,115.97-62.17,258.47-77.59,388.77-42.08,153.44,41.82,257.37,146.47,273.36,275.26,3.52,28.37-5.59,86.57-18.07,115.45-19.83,45.89-54.72,88.51-99.13,121.13-154.41,113.4-401.15,114.44-637.72,2.68-21.11-9.97-38.95-17.71-39.64-17.19-2.53,1.9,3.21,45.03,9.32,70.07,33.58,137.61,159.22,261.64,332.07,327.81,215.7,82.58,479.98,74.24,706.92-22.29,119.62-50.88,272.89-158.29,410.07-287.37,27.96-26.31,35.58-31.52,55.31-37.77,46.54-14.76,91.95,20.64,85.64,66.75-4.17,30.44-13.37,42.14-82.02,104.28-133.05,120.43-263,210.34-388.74,268.98-155.18,72.36-324.53,106.36-505.67,101.53-37.81-1.01-136.41-11.7-165.92-18h0Zm-1252.19-698.69c93.01-10.43,180.12-88.01,233.89-208.29,19.48-43.59,19.51-39.65-.34-49.52-45.65-22.71-97.09-36.86-134.53-37.01-52.18-.22-93.09,11.94-131.99,39.24-27.14,19.04-46.74,41.3-61.25,69.57-9.89,19.26-11.77,25.91-15.98,56.3-5.26,37.99-3.22,54.93,9.95,82.6,16.36,34.38,54.4,52.27,100.24,47.13h0Zm1155.01,86.22c125.47,5.02,231.13-33.1,277.58-100.14,11.8-17.03,12.83-19.91,16.65-46.85,3.95-27.87,3.83-29.36-4.14-51.22-16.72-45.84-63.18-88.25-124.71-113.87-37.17-15.47-107.48-28.14-152.17-27.42-62.15,1-126.44,17.48-177.2,45.4-48.48,26.67-102.49,74.97-133.06,119.01-15.95,22.96-37.74,66.1-35.07,69.4,4.1,5.07,78.35,40.83,117.24,56.47,73.73,29.65,147.42,46.53,214.88,49.23h0Z"/>
  <path id="path1-2" data-name="path1" class="cls-2" d="m5170.33,4240.25c-121.24-127.98-185.06-271.12-186.17-417.56l-.21-27.32-21.38-19.05c-27.13-24.18-97.18-105.93-120.1-140.17-129.65-193.66-190.44-421.28-174.6-653.87,12.33-181.06,61.62-323.69,151.61-438.66,17.82-22.77,25.06-29.75,71.16-68.66,48.21-40.69,53.11-44.24,81.02-58.68,40.71-21.06,71.38-32.88,115.6-44.55l37.54-9.91,5.44-41.56c30.7-234.54,124.83-445.78,264.63-593.84,26.24-27.79,93.37-83.74,124.53-103.79,67.52-43.45,144.23-73.24,218.36-84.82,172.85-27,345.3,31.27,491.67,166.13,31.12,28.67,89.49,96.52,113.52,131.94,18.11,26.7,49.24,80.64,57.14,99.03l5.15,11.97,36.03-4.05c38.42-4.32,102.32-1.91,141.27,5.35,93.84,17.47,181.33,61.33,248.43,124.54,29.69,27.97,64.56,73.64,81.61,106.88,41.42,80.76,52.44,144.26,44.43,255.89-4.28,59.63-9.16,76.98-25.55,90.86-19.39,16.42-49.82,17.27-70.67,1.99-19.53-14.32-23.92-27.9-23.03-71.21,1.96-95.7-6.15-143.8-34.23-203.1-54.14-114.31-187.72-189.29-326.33-183.16l-27.52,1.22,3.02,12.83c10.65,45.33,15.85,109.69,12.76,158.16-7.04,110.6-45.04,198.97-112.71,262.14-50.53,47.17-103.83,68.15-160.16,63.06-73.59-6.65-131.23-59.95-151.64-140.21-8.68-34.15-10.25-62.98-5.68-104.26,8.07-72.78,39.05-145.15,90.03-210.32,32.7-41.8,90.94-90.57,140.13-117.32l15.19-8.26-5.09-10.29c-20.75-41.99-61.1-100.03-95.98-138.05-119.41-130.16-260.74-191.37-404.24-175.09-191.06,21.69-361.01,182.91-456.91,433.46-24.79,64.75-50.73,169.35-57.73,232.7l-2.67,24.15,30.49,4.38c132.88,19.09,242.54,74.27,344.29,173.23,28.79,28,81.21,93.27,100.44,125.05,62.41,103.16,90.71,207.9,82.55,305.51-5.03,60.21-18.78,103.88-46.98,149.22-19.86,31.94-36,49.62-68.53,75.08-24.13,18.89-31.75,23.44-54.15,32.42-34.03,13.63-66.82,19.13-102.11,17.11-47.65-2.72-86.41-15.32-130.06-42.29-40.1-24.77-58.71-41.63-99.91-90.52-39.48-46.83-56.5-72.8-85.76-130.82-60.75-120.45-101.86-293.89-106.31-448.59-.37-12.75-1.4-24-2.28-25.01-3.78-4.29-53.98,14.68-87.52,33.07-132.64,72.73-215.23,228.69-232.68,439.37-16.88,203.79,27.45,391.14,133.13,562.58,23.21,37.66,79.86,110.27,83.57,107.13,1.36-1.15,5.02-8.09,8.13-15.41,20.63-48.54,64.06-102.49,111.39-138.38,61.12-46.35,128.11-69.82,201.52-70.62,136.24-1.48,255.44,73.76,290.43,183.3,22.8,71.37,9.36,150.57-36.26,213.71-18.15,25.12-61.37,60.02-93.14,75.21-61.07,29.2-127.74,40.13-205.76,33.72-53.93-4.43-111.49-18.31-159.41-38.44-6.63-2.78-12.45-4.72-12.95-4.3-2.14,1.81,7.39,41.53,16.11,67.17,25.6,75.28,72.26,144.35,156.13,231.1,39.6,40.96,48.37,54.39,50.06,76.61,2.89,38.08-32.31,71-69.93,65.4-24.37-3.62-44-19.09-102.19-80.52h0Zm-45.4-504.66c3.55,3.96,53.16,26.81,76.5,35.23,69.33,25.02,151.54,30.98,204.71,14.84,21.51-6.53,50.61-21.38,63.7-32.51,40.32-34.29,49.97-88.24,23.93-133.74-19.83-34.65-71.25-63.56-124.12-69.77-61.05-7.17-106.21,5.78-156.65,44.93-23.35,18.12-29.94,24.59-43.17,42.33-17.78,23.86-32.81,53.09-40.76,79.26-3,9.87-4.84,18.59-4.13,19.42Zm237.61-787.62c17.23,30.3,68.93,95.8,90.01,114.03,30.23,26.15,71.55,44.75,100.47,45.23,44.78.74,85.76-26.45,110.66-73.43,89.83-169.48-86.75-460.01-322.26-530.22-27.28-8.13-86.38-19.47-89.17-17.1-4.6,3.9,6.49,130.98,16.46,188.5,16.75,96.64,52.18,199.73,93.84,272.99h0Zm803.88-554.05c3.99,15.76,16.57,36.36,24.93,40.8,16.24,8.62,43.58.44,67.31-20.13,51.34-44.51,80.4-124.75,77.4-213.73-1.01-29.83-7.99-81.2-11.62-85.49-4.91-5.8-69.04,46.04-94.07,76.05-15.66,18.77-37.55,53.92-46.25,74.24-18.08,42.25-25.63,96.95-17.71,128.26h0Z"/>
</svg>