<?xml version="1.0" encoding="UTF-8"?>
<svg id="_栝鍣_1" data-name="栝鍣 1" xmlns="http://www.w3.org/2000/svg" viewBox="0 0 2000 2000">
  <defs>
    <style>
      .cls-1 {
        fill: #4c4be4;
      }

      .cls-1, .cls-2 {
        stroke-width: 0px;
      }

      .cls-2 {
        fill: #fff;
      }
    </style>
  </defs>
  <g>
    <path class="cls-1" d="m906.73,1401.19c9.6-127.94,8.72-254.85-17.24-381.99-13.76-67.55-37.82-182.67-101.77-226.43-70.55-48.4-109.09,55.65-79.69,107.49,50.12,88.32,153.19,67.5,227.49,22.25,85.13-51.84,128.81-157.66,128.77-252.6.01-86.65-94.64-158.72-149.87-64.77-48.31,82.16,52.24,207.68,115.04,259.59,71.43,59.19,185.95,72.5,233.59-16.81,20.26-38.06.67-122.22-58.76-117.19-86.1,7.39-105.35,118.93-115.96,183.7-25.06,152.74-24.16,340.87,49.81,484.22,10.49,20.36,40.96,3.06,31-17.02-73.9-149.84-70.28-344.66-38.3-501.63,5.42-26.49,13.79-52,26.47-75.91,15.31-28.8,56.87-56,74.38-12.5,29.71,73.7-74.27,100.6-128.02,83.67-53.15-16.77-94.24-62.7-123.22-106.22-16.08-24.27-29.99-49.06-40.62-76.02-4.72-12.92-7.4-26.13-8.16-39.77-3.71-39.93,42.43-99.48,86.52-40.18,33.7,45.34,12,115.99-4.23,162.27-18.22,51.98-46.46,91.66-92.94,123.79-41.08,28.34-120.44,59.54-166.57,20.54-20.63-17.54-31.41-45.02-32.88-70.32,2.03-28.15,17.32-41.09,45.82-38.7,11.98,5.68,20.28,19.21,27.45,29.38,45.71,65.35,63.86,152.63,78.44,227.69,21.35,109.95,21.39,222.62,18.67,333.42-.23,9.24,14.18,8.94,14.79.03h0Z"/>
    <path class="cls-1" d="m1037.77,1755.12c-70.25,0-122.96-8.49-131.91-10.02-8.37-.55-37.55-4.94-65.8-38.54-38.51-45.79-58.29-124.93-58.81-235.2l-3.15-115.07,22.88,4.5c.28.05,30.45,5.81,93.44,9.09,66.4,3.49,180.23,4.65,345.5-9.61l18.06-1.56,2.07,18.01c.39,3.41,9.55,84.46,4.03,169.53-3.3,50.93-11.27,92.72-23.68,124.22-17.18,43.6-43.14,68.69-77.18,74.56-32.81,5.61-67.86,8.91-104.19,9.82-7.24.18-14.34.26-21.26.26Zm-127.73-47.34l1.19.39c.63.11,64.8,11.42,146.87,9.39,34.55-.86,67.79-3.99,98.81-9.3,52.16-9,66.22-106.88,69.95-164.43,3.8-58.64.21-116.52-2.16-144.86-157.49,12.8-267.16,11.57-332.22,8.15-34.57-1.8-59.62-4.31-75.84-6.33l1.91,70.18c.54,122.51,26.06,180.87,47.36,208.25,20.29,26.07,39.74,28.45,42.21,28.65l1.91-.09Z"/>
    <path class="cls-1" d="m778.6,1412.09l.38-19.04c0-.35.55-37.23-9.24-91.79-8.99-50.09-28.79-125.83-72.09-202.19-5.86-10.34-11.72-20.57-17.93-31.41-40.55-70.79-86.52-151.02-114.41-235.93-32.41-98.66-35.81-189.26-10.41-276.99,14.56-50.35,36.27-96.13,64.52-136.07,40.01-56.36,92.39-99.95,155.71-129.58,62.63-29.31,134.33-44.18,213.1-44.2h.39c52.63,0,102.96,6.72,149.6,19.98,46.86,13.33,90.17,33.3,128.71,59.38,38.95,26.35,73.17,59.01,101.71,97.08,28.99,38.67,52.27,83.14,69.19,132.16h0c30.29,87.67,31.93,178.29,5.02,277.06-23.17,85.06-64.67,165.4-101.29,236.28l-1.62,3.14c-5.71,10.99-10.29,19.9-14.43,28.07-38.99,76.33-54.54,152-60.73,202.04-6.74,54.55-4.14,91.41-4.12,91.78l1.48,20.02-20.07.02-222.22.06-241.26.14Zm210.02-1129.9h-.37c-148,.04-265.01,54.69-338.39,158.05-25.82,36.51-45.72,78.53-59.12,124.88-52.35,180.79,39.93,341.89,121.35,484.01,5.96,10.4,12.12,21.15,18.01,31.56,46.13,81.33,67.09,161.86,76.55,215.08,6.12,34.4,8.37,61.96,9.19,79l204-.12,203-.05c-.1-17.12.68-44.28,4.8-78.02,6.5-53.3,22.99-133.94,64.63-215.47,4.17-8.23,8.8-17.24,14.56-28.31l1.6-3.1c73.41-142.12,156.62-303.21,94.15-484.05h0c-62.17-180.17-213.04-283.47-413.95-283.47Z"/>
    <g>
      <path class="cls-1" d="m1021.04,1477.26c56.46-.71,135.49,5.76,187.7-16.89,5.31-2.27,2.11-9.5-2.97-9.77-40.93-1.82-83.48,3.39-125.59,7.3l-194.93,3.18c-17.12-.82-34.19-2.03-51.18-3.81-5.52-.63-6.2,7.69-1.05,9.06,60.19,15.51,126.8,11.73,188.03,10.93Z"/>
      <path class="cls-1" d="m1208.67,1538.78c-40.94-1.84-83.54,3.39-125.7,7.31l-195.29,3.14c-16.95-.82-33.86-2.02-50.68-3.78-5.56-.57-6.16,7.72-1.06,9.04,60.15,15.53,126.79,11.74,187.98,10.95,56.51-.75,135.51,5.71,187.69-16.86,5.28-2.26,2.16-9.54-2.95-9.79Z"/>
      <path class="cls-1" d="m1197.85,1622.93c-37.7-1.9-76.89,2.58-115.66,5.91l-180.57,1.83c-15.53-.83-31.03-2-46.46-3.67-5.12-.54-5.62,6.92-.89,8.14,55.53,14.35,116.95,11.29,173.39,10.89,52.09-.37,124.91,5.88,172.97-14.29,4.86-2.03,1.85-8.59-2.78-8.81Z"/>
    </g>
  </g>
</svg>