<?xml version="1.0" encoding="UTF-8"?>
<svg id="_圖層_1" data-name="圖層 1" xmlns="http://www.w3.org/2000/svg" viewBox="0 0 1288.7 354.37">
  <defs>
    <style>
      .cls-1 {
        stroke-width: 0px;
      }
    </style>
  </defs>
  <path class="cls-1" d="m18.26,230.72c0-8.09,1.93-16.96,7.13-28.71l35.07,5.2,2.12-46.25c-2.89-6.94-5.97-13.49-9.25-20.04l-15.42-5.59c4.82-19.27,22.93-28.52,37.58-28.52,25.05,0,42.01,20.62,55.88,66.67,15.99-56.27,37.58-66.67,57.62-66.67,11.56,0,25.05,4.05,29.68,20.04l-12.14,12.72c.58,4.43.96,10.21.96,17.15,0,27.75-5.59,70.53-9.06,83.05l6.55,11.18c-7.9,6.17-19.08,8.86-28.52,8.86-19.08,0-28.52-10.79-28.52-32.18,0-10.79,2.89-36.61,6.17-59.93l-.96-.19-28.33,88.64-9.63,2.7c-13.1-6.17-26.01-31.02-35.26-65.32l-.96.39c.19,4.05.19,8.09.19,11.95,0,30.25-7.71,53.96-32.57,53.96-12.72,0-28.33-6.74-28.33-29.1Z"/>
  <path class="cls-1" d="m215.78,228.41c0-14.64,4.05-34.49,7.71-50.68l-6.36-11.56c5.78-5.2,18.5-9.44,26.78-9.44,21.58,0,29.1,12.53,29.1,33.91,0,13.3-3.85,33.53-7.32,48.37l6.36,11.75c-6.36,5.59-19.08,9.25-26.98,9.25-21.77,0-29.29-11.75-29.29-31.6Zm8.29-102.32c0-15.22,10.02-23.51,25.44-23.51s25.82,8.48,25.82,23.51-10.6,22.55-25.24,22.55c-15.61,0-26.01-7.9-26.01-22.55Z"/>
  <path class="cls-1" d="m278.99,209.91c0-30.25,23.51-54.53,60.89-54.53,34.11,0,47.79,18.31,47.79,34.11,0,16.76-10.02,25.05-30.25,25.05-5.4,0-11.56-1.16-16.19-3.66-.39-3.08-.77-6.17-.77-9.25,0-5.59,1.35-11.18,3.47-15.99l-11.75-3.66c.19,1.93.39,6.55.39,12.33,0,7.71-.58,18.5-2.89,27.56l52.8,1.93c.58,2.31.96,4.62.96,6.74,0,17.34-20.04,30.45-45.86,30.45-37.19,0-58.58-19.27-58.58-51.06Z"/>
  <path class="cls-1" d="m393.84,226.87c0-20.23,8.86-89.6,13.3-106.95l-6.94-11.56c5.78-5.2,18.5-9.44,26.78-9.44,21.97,0,29.87,13.3,29.87,35.46,0,5.97-.77,16.19-1.93,28.13,7.13-3.47,15.22-5.78,22.93-5.78,23.7,0,31.22,13.87,31.22,37.38,0,12.53-2.12,27.75-4.82,44.9l6.55,11.75c-6.17,5.59-18.88,9.25-26.79,9.25-21.2,0-29.68-12.72-29.68-31.41,0-11.18,2.89-24.86,8.09-39.12l-10.02-2.89c-2.7,22.16-5.78,44.13-8.09,52.41l6.55,11.75c-6.36,5.59-19.08,9.25-26.98,9.25-22.35,0-30.06-12.33-30.06-33.14Z"/>
  <path class="cls-1" d="m515.63,213.96c0-38.54,27.94-58.39,63.59-58.39,23.32,0,48.56,10.21,48.56,33.53,0,17.92-11.37,28.9-39.31,28.9-6.74,0-14.26-.58-22.93-1.93-.77,2.7-1.54,5.2-2.31,7.52l58.77,2.31c.19,1.35.19,2.5.19,3.66,0,20.43-21.77,31.41-50.49,31.41-35.07,0-56.07-21.2-56.07-47.02Zm52.99-14.65l8.86.96c.39-3.28,1.93-9.25,4.24-15.03l-12.53-3.85c.19,1.73.19,3.28.19,5.2,0,4.43-.19,8.67-.77,12.72Z"/>
  <path class="cls-1" d="m633.95,226.87c0-20.23,8.86-89.6,13.3-106.95l-6.94-11.56c5.78-5.2,18.5-9.44,26.78-9.44,21.97,0,29.87,13.3,29.87,35.46,0,19.85-8.09,88.26-12.52,104.63l6.55,11.75c-6.36,5.59-19.08,9.25-26.98,9.25-22.35,0-30.06-12.33-30.06-33.14Z"/>
  <path class="cls-1" d="m699.85,226.87c0-20.23,8.86-89.6,13.3-106.95l-6.94-11.56c5.78-5.2,18.5-9.44,26.78-9.44,21.97,0,29.87,13.3,29.87,35.46,0,19.85-8.09,88.26-12.52,104.63l6.55,11.75c-6.36,5.59-19.08,9.25-26.98,9.25-22.35,0-30.06-12.33-30.06-33.14Z"/>
  <path class="cls-1" d="m764.22,213.96c0-38.54,27.94-58.39,63.59-58.39,23.32,0,48.56,10.21,48.56,33.53,0,17.92-11.37,28.9-39.31,28.9-6.74,0-14.26-.58-22.93-1.93-.77,2.7-1.54,5.2-2.31,7.52l58.77,2.31c.19,1.35.19,2.5.19,3.66,0,20.43-21.78,31.41-50.49,31.41-35.07,0-56.08-21.2-56.08-47.02Zm52.99-14.65l8.86.96c.39-3.28,1.93-9.25,4.24-15.03l-12.53-3.85c.19,1.73.19,3.28.19,5.2,0,4.43-.19,8.67-.77,12.72Z"/>
  <path class="cls-1" d="m973.1,223.78c0-15.03,7.13-80.74,11.75-97.12l-6.94-10.98c5.97-4.82,19.08-8.86,26.59-8.86,23.51,0,32.95,12.72,32.95,33.91s-3.66,47.98-11.56,74.19h58.39c.77,3.47,1.16,6.94,1.16,10.21,0,18.31-11.95,34.69-37.38,34.69-10.98,0-33.34-6.36-42.2-11.95l-21,10.98c-7.51-7.13-11.75-13.68-11.75-35.07Z"/>
  <path class="cls-1" d="m1089.88,228.41c0-14.64,4.05-34.49,7.71-50.68l-6.36-11.56c5.78-5.2,18.5-9.44,26.78-9.44,21.58,0,29.1,12.53,29.1,33.91,0,13.3-3.85,33.53-7.32,48.37l6.36,11.75c-6.36,5.59-19.08,9.25-26.98,9.25-21.77,0-29.29-11.75-29.29-31.6Zm8.29-102.32c0-15.22,10.02-23.51,25.44-23.51s25.82,8.48,25.82,23.51-10.6,22.55-25.24,22.55c-15.61,0-26.01-7.9-26.01-22.55Z"/>
  <path class="cls-1" d="m1155.78,221.09c0-12.33,2.5-26.59,5.78-43.36l-6.55-11.75c6.17-5.59,18.88-9.25,26.78-9.25,21.2,0,29.68,12.72,29.68,31.41,0,11.18-2.89,24.86-8.09,39.12l9.83,3.08v-1.93c0-14.64,4.05-34.49,7.71-50.68l-6.36-11.56c5.78-5.2,18.5-9.44,26.78-9.44,21.58,0,29.1,12.53,29.1,33.91,0,13.3-3.85,33.53-7.32,48.37l6.36,11.75c-6.36,5.59-19.08,9.25-26.98,9.25-12.52,0-20.43-3.85-24.86-10.98-7.52,6.17-18.5,10.98-29.68,10.98-23.7,0-32.18-14.45-32.18-38.92Z"/>
</svg>