<?xml version="1.0" encoding="UTF-8"?>
<svg id="_圖層_1" data-name="圖層 1" xmlns="http://www.w3.org/2000/svg" viewBox="0 0 1824.35 354.37">
  <defs>
    <style>
      .cls-1 {
        fill: #4c4be4;
        stroke: #4c4be4;
        stroke-miterlimit: 10;
        stroke-width: 8px;
      }

      .cls-2 {
        stroke-width: 0px;
      }
    </style>
  </defs>
  <g>
    <path class="cls-2" d="m490.66,109.13c0-6.95,1.99-12.33,5.97-16.14,3.98-3.81,9.79-5.72,17.41-5.72,7.12,0,12.75,1.95,16.9,5.85,4.15,3.9,6.23,9.32,6.23,16.27,0,5.76-1.82,10.68-5.47,14.74-3.65,4.07-9.53,6.1-17.67,6.1s-14.07-1.78-17.79-5.34c-3.73-3.56-5.59-8.81-5.59-15.76Zm22.11,170.82c-2.03.17-4.11-.13-6.23-.89-2.12-.76-4.07-1.91-5.85-3.43s-3.22-3.48-4.32-5.85c-1.1-2.37-1.65-5.17-1.65-8.39v-26.05c0-9.23.04-18,.13-26.31.08-8.3.13-15.63.13-21.99v-13.09c.17-10,1.99-16.78,5.46-20.34,3.47-3.56,7.75-5.34,12.84-5.34,5.76,0,10.25,1.91,13.47,5.72,3.22,3.81,4.83,10.13,4.83,18.94v24.15c0,7.12-.04,13.98-.13,20.59-.09,6.61-.13,13.22-.13,19.83v21.86c0,3.39-.55,6.32-1.65,8.77-1.1,2.46-2.54,4.53-4.32,6.23-1.78,1.69-3.77,3.01-5.97,3.94-2.2.93-4.41,1.48-6.61,1.65Z"/>
    <path class="cls-2" d="m637.84,276.39c-7.46,0-15.34-1.44-23.64-4.32-8.3-2.88-15.93-7.28-22.88-13.22-6.95-5.93-12.71-13.39-17.28-22.37-4.58-8.98-6.86-19.49-6.86-31.52,0-11.01,2.03-21.05,6.1-30.12,4.07-9.06,9.53-16.82,16.39-23.26,6.86-6.44,14.83-11.44,23.89-15,9.06-3.56,18.6-5.34,28.6-5.34,4.91,0,9.45.34,13.6,1.02,4.15.68,8.05,1.87,11.69,3.56,3.64,1.7,7.12,3.86,10.42,6.48,3.3,2.63,6.65,5.89,10.04,9.79,1.35,1.53,2.29,3.35,2.8,5.47.51,2.12.64,4.28.38,6.48-.25,2.2-.93,4.28-2.03,6.23-1.1,1.95-2.67,3.43-4.7,4.45-3.9,2.38-7.92,3.73-12.07,4.07-4.15.34-7.92-1.44-11.31-5.34-2.03-2.54-4.7-4.7-8.01-6.48-3.3-1.78-7.75-2.67-13.34-2.67-4.58,0-8.98.76-13.22,2.29-4.24,1.53-8.01,3.9-11.31,7.12-3.3,3.22-5.97,7.33-8.01,12.33-2.03,5-3.05,11.06-3.05,18.17,0,5.43.85,10.42,2.54,15,1.69,4.58,4.28,8.52,7.75,11.82,3.47,3.3,7.88,5.89,13.22,7.75,5.34,1.87,11.73,2.8,19.19,2.8,5.93,0,10.59-1.1,13.98-3.31,3.39-2.2,6.27-4.15,8.64-5.85,2.54-1.53,5.12-1.74,7.75-.64,2.63,1.1,4.96,3.18,6.99,6.23,2.2,3.22,3.43,7.12,3.69,11.69.25,4.58-1.99,8.81-6.74,12.71-2.38,2.03-4.79,3.9-7.24,5.59-2.46,1.7-5.3,3.18-8.51,4.45-3.22,1.27-7.03,2.24-11.44,2.92-4.41.67-9.75,1.02-16.01,1.02Z"/>
    <path class="cls-2" d="m735.19,279.95c-4.07.34-7.75-1.06-11.06-4.19-3.3-3.14-4.96-7.92-4.96-14.36v-114c0-9.57.04-17.92.13-25.04.08-7.12.13-11.95.13-14.49,0-4.07.46-7.41,1.4-10.04.93-2.62,2.16-4.61,3.69-5.97,1.53-1.35,3.39-2.29,5.59-2.8,2.2-.51,4.66-.76,7.37-.76,1.86,0,3.81.47,5.85,1.4,2.03.93,3.94,2.25,5.72,3.94,1.78,1.7,3.22,3.77,4.32,6.23,1.1,2.46,1.65,5.3,1.65,8.51v35.08c6.44-3.05,13.13-5.29,20.08-6.74,6.95-1.44,13.47-2.16,19.57-2.16,3.56,0,7.96.64,13.22,1.91,5.25,1.27,10.38,3.69,15.38,7.24,5,3.56,9.23,8.56,12.71,15,3.47,6.44,5.21,14.83,5.21,25.16v73.97c0,2.03-.38,4.19-1.14,6.48s-1.87,4.41-3.3,6.35c-1.44,1.95-3.22,3.6-5.34,4.96-2.12,1.35-4.62,2.03-7.5,2.03-5.76,0-10.25-1.53-13.47-4.58-3.22-3.05-4.83-9.15-4.83-18.3s.04-19.48.13-31.01c.08-11.52.13-22.28.13-32.28,0-7.63-1.65-13.47-4.96-17.54-3.3-4.07-9.37-6.1-18.17-6.1-4.75,0-9.45.85-14.11,2.54-4.66,1.7-9.19,3.9-13.6,6.61l-.25,85.41c0,1.7-.64,3.56-1.91,5.59-1.27,2.03-2.84,3.9-4.7,5.59-1.87,1.69-3.98,3.13-6.35,4.32-2.38,1.18-4.58,1.86-6.61,2.03Z"/>
    <path class="cls-2" d="m941.84,276.64c-8.48,0-17.2-.72-26.18-2.16-8.98-1.44-17.27-4.58-24.86-9.41-7.59-4.83-13.82-11.9-18.68-21.22-4.87-9.32-7.3-21.94-7.3-37.87,0-11.18,1.83-21.31,5.5-30.38,3.67-9.06,8.57-16.86,14.72-23.39,6.14-6.52,13.33-11.57,21.57-15.12,8.23-3.56,16.93-5.34,26.08-5.34s17.37,1.36,24.66,4.07c7.28,2.71,13.38,6.4,18.3,11.06,4.91,4.66,8.68,10,11.31,16.01,2.62,6.02,3.94,12.33,3.94,18.94,0,10.17-2.54,18.13-7.63,23.89-5.08,5.76-13.47,8.81-25.16,9.15-8.98.34-17.92.51-26.82.51s-19.19-.17-30.88-.51c1.35,9.83,5.04,17.2,11.06,22.11,6.01,4.92,14.95,7.37,26.82,7.37,8.13,0,14.57-1.31,19.32-3.94,4.74-2.62,8.39-5.12,10.93-7.5,3.39-3.05,6.86-4.45,10.42-4.19,3.56.25,7.03,2.58,10.42,6.99,2.37,2.88,3.22,6.57,2.54,11.06-.68,4.49-3.3,8.86-7.88,13.09-4.58,4.41-10.25,8.3-17.03,11.69-6.78,3.39-15.17,5.08-25.16,5.08Zm-40.67-89.73c11.69.34,21.82.42,30.38.25,8.56-.17,15.89-.59,21.99-1.27,1.18-.17,2.03-.8,2.54-1.91.51-1.1.72-2.41.64-3.94-.09-1.53-.47-3.09-1.14-4.7-.68-1.61-1.53-2.92-2.54-3.94-2.2-2.2-4.75-4.07-7.63-5.59-2.88-1.53-6.95-2.45-12.2-2.8-5.08-.34-9.58.21-13.47,1.65-3.9,1.44-7.8,4.11-11.69,8.01-3.22,3.22-5.51,7.97-6.86,14.23Z"/>
    <path class="cls-2" d="m1044.53,277.15c-5.43.34-9.91-1.02-13.47-4.07-3.56-3.05-5.34-7.79-5.34-14.23v-112.99c0-9.4.04-17.5.13-24.28.08-6.78.13-11.27.13-13.47.17-7.63,1.65-13.17,4.45-16.65,2.8-3.47,7.41-5.21,13.85-5.21,5.59,0,9.95,1.82,13.09,5.46,3.13,3.65,4.7,9.02,4.7,16.14l-.25,149.72c0,2.38-.43,4.66-1.27,6.86-.85,2.2-2.03,4.24-3.56,6.1-1.53,1.86-3.35,3.39-5.46,4.58-2.12,1.18-4.45,1.86-6.99,2.03Z"/>
    <path class="cls-2" d="m1128.41,277.15c-5.43.34-9.91-1.02-13.47-4.07-3.56-3.05-5.34-7.79-5.34-14.23v-112.99c0-9.4.04-17.5.13-24.28.08-6.78.13-11.27.13-13.47.17-7.63,1.65-13.17,4.45-16.65,2.8-3.47,7.41-5.21,13.85-5.21,5.59,0,9.95,1.82,13.09,5.46,3.13,3.65,4.7,9.02,4.7,16.14l-.25,149.72c0,2.38-.43,4.66-1.27,6.86-.85,2.2-2.03,4.24-3.56,6.1-1.53,1.86-3.35,3.39-5.46,4.58-2.12,1.18-4.45,1.86-6.99,2.03Z"/>
    <path class="cls-2" d="m1257.03,276.64c-8.48,0-17.2-.72-26.18-2.16-8.98-1.44-17.27-4.58-24.86-9.41-7.59-4.83-13.82-11.9-18.68-21.22-4.87-9.32-7.3-21.94-7.3-37.87,0-11.18,1.83-21.31,5.5-30.38,3.67-9.06,8.58-16.86,14.72-23.39,6.14-6.52,13.33-11.57,21.57-15.12,8.23-3.56,16.93-5.34,26.08-5.34s17.37,1.36,24.66,4.07c7.28,2.71,13.38,6.4,18.3,11.06,4.91,4.66,8.68,10,11.31,16.01,2.62,6.02,3.94,12.33,3.94,18.94,0,10.17-2.54,18.13-7.63,23.89-5.08,5.76-13.47,8.81-25.16,9.15-8.98.34-17.92.51-26.82.51s-19.19-.17-30.88-.51c1.35,9.83,5.04,17.2,11.06,22.11,6.01,4.92,14.95,7.37,26.82,7.37,8.13,0,14.57-1.31,19.32-3.94,4.74-2.62,8.39-5.12,10.93-7.5,3.39-3.05,6.86-4.45,10.42-4.19,3.56.25,7.03,2.58,10.42,6.99,2.37,2.88,3.22,6.57,2.54,11.06-.68,4.49-3.3,8.86-7.88,13.09-4.58,4.41-10.25,8.3-17.03,11.69-6.78,3.39-15.17,5.08-25.16,5.08Zm-40.67-89.73c11.69.34,21.82.42,30.38.25,8.56-.17,15.89-.59,21.99-1.27,1.18-.17,2.03-.8,2.54-1.91.51-1.1.72-2.41.64-3.94-.09-1.53-.47-3.09-1.14-4.7-.68-1.61-1.53-2.92-2.54-3.94-2.2-2.2-4.75-4.07-7.63-5.59-2.88-1.53-6.95-2.45-12.2-2.8-5.08-.34-9.58.21-13.47,1.65-3.9,1.44-7.8,4.11-11.69,8.01-3.22,3.22-5.51,7.97-6.86,14.23Z"/>
    <path class="cls-2" d="m1412.84,269.53c-4.24-.34-7.37-1.31-9.41-2.92-2.03-1.61-3.05-4.36-3.05-8.26v-92.78c0-9.66.04-18.43.13-26.31.08-7.88.13-13.68.13-17.41,0-4.07.46-7.37,1.4-9.91.93-2.54,2.16-4.53,3.68-5.97,1.53-1.44,3.39-2.37,5.59-2.8,2.2-.42,4.66-.64,7.37-.64,5.08,0,9.11,1.7,12.07,5.08,2.96,3.39,4.45,8.31,4.45,14.74v29.23c0,8.48-.04,16.78-.13,24.91-.09,8.13-.13,16.61-.13,25.42v31.01c0,2.71,1.61,4.15,4.83,4.32,2.03.17,5.42.21,10.17.13,4.74-.08,10-.21,15.76-.38,5.76-.17,11.48-.38,17.16-.64,5.68-.25,10.46-.46,14.36-.64,7.12-.17,12.16,1.27,15.12,4.32,2.96,3.05,4.45,6.78,4.45,11.18,0,5.42-1.36,9.53-4.07,12.33-2.71,2.8-7.29,4.45-13.73,4.96-1.7.17-4.62.34-8.77.51-4.15.17-8.94.3-14.36.38-5.42.09-11.23.21-17.41.38-6.19.17-12.2.25-18.05.25s-11.23-.04-16.14-.13c-4.92-.08-8.73-.21-11.44-.38Z"/>
    <path class="cls-2" d="m1542.22,109.13c0-6.95,1.99-12.33,5.97-16.14,3.98-3.81,9.79-5.72,17.41-5.72,7.12,0,12.75,1.95,16.9,5.85,4.15,3.9,6.23,9.32,6.23,16.27,0,5.76-1.82,10.68-5.46,14.74-3.65,4.07-9.53,6.1-17.67,6.1s-14.07-1.78-17.79-5.34c-3.73-3.56-5.59-8.81-5.59-15.76Zm22.11,170.82c-2.03.17-4.11-.13-6.23-.89-2.12-.76-4.07-1.91-5.85-3.43s-3.22-3.48-4.32-5.85c-1.1-2.37-1.65-5.17-1.65-8.39v-26.05c0-9.23.04-18,.13-26.31.08-8.3.13-15.63.13-21.99v-13.09c.17-10,1.99-16.78,5.47-20.34,3.47-3.56,7.75-5.34,12.84-5.34,5.76,0,10.25,1.91,13.47,5.72,3.22,3.81,4.83,10.13,4.83,18.94v24.15c0,7.12-.04,13.98-.13,20.59-.09,6.61-.13,13.22-.13,19.83v21.86c0,3.39-.55,6.32-1.65,8.77-1.1,2.46-2.54,4.53-4.32,6.23-1.78,1.69-3.77,3.01-5.97,3.94-2.2.93-4.41,1.48-6.61,1.65Z"/>
    <path class="cls-2" d="m1689.27,276.39c-18.68,0-33.29-3.98-43.81-11.95-10.53-7.96-16.3-18.81-17.32-32.54-.51-6.78-.93-13.68-1.27-20.72-.34-7.03-.55-13.73-.64-20.08-.09-6.35-.17-12.28-.25-17.79-.09-5.5-.13-10.12-.13-13.85,0-7.46,1.44-13.68,4.32-18.68,2.88-5,7.88-7.5,15-7.5,5.42,0,9.74,2.16,12.96,6.48,3.22,4.32,4.83,9.11,4.83,14.36v6.35c0,3.05-.04,6.53-.13,10.42-.09,3.9-.17,8.05-.25,12.46-.09,4.41-.17,8.56-.25,12.46-.09,3.9-.13,7.37-.13,10.42v6.61c0,10.17,2.2,17.71,6.61,22.62,4.4,4.92,10.84,7.37,19.32,7.37s14.27-2.67,18.43-8.01c4.15-5.34,6.23-12.75,6.23-22.24v-56.18c0-4.91.55-8.9,1.66-11.95,1.11-3.05,2.56-5.38,4.35-6.99,1.79-1.61,3.92-2.71,6.4-3.3,2.47-.59,4.99-.89,7.55-.89,5.29,0,9.34,1.78,12.16,5.34,2.82,3.56,4.31,8.39,4.48,14.49.17,3.05.25,6.27.25,9.66s-.04,7.5-.13,12.33c-.09,4.83-.17,10.76-.25,17.79-.09,7.03-.13,15.63-.13,25.8,0,8.98-1.53,17.03-4.59,24.15-3.06,7.12-7.26,13.13-12.61,18.05-5.35,4.92-11.68,8.73-18.98,11.44-7.3,2.71-15.2,4.07-23.69,4.07Z"/>
  </g>
  <path class="cls-1" d="m470.48,271.46c-26.65-13.66-54.19-27.45-76.4-47.88-19.81-18.23-31.72-41.32-43.88-64.94-11.13-21.62-23.11-44.3-41.92-60.32-10.31-8.78-25.15-20.04-39.53-17.06-13.4,2.79-24.94,15.61-33.41,25.72-3.81,4.55-7.32,9.29-10.54,14.19-1.73-10.38-4.31-20.65-9.29-29.69-18.39-33.35-60.93-24.92-82.16.27-21.93,26.03-36.44,60.88-47.24,92.82-11.31,33.43-17.4,68.63-17.85,103.93-.24,19.33,29.79,19.35,30.04,0,.71-56.8,18-112.31,46.81-161.07,5.77-9.77,12.62-21.65,23.55-26.41,10.44-4.55,18.76-.82,22.65,9.61,4.8,12.85,6.04,27.85,7.36,41.38,1.5,15.43,1.95,30.91,1.55,46.41-.49,19.35,29.39,19.3,30.04,0,.83-24.65,9.48-48.91,24.78-68.34,3.47-4.4,7.35-8.52,11.41-12.38,2.16-2.06,4.48-3.93,6.68-5.95.3-.27.7-.46,1.07-.6.72.59,2.63,1.52,2.85,1.65,8.87,4.99,16.29,11.89,22.65,19.81,13.8,17.16,22.68,38.02,32.94,57.35,11.48,21.62,25.05,41.7,43.62,57.92,23.61,20.62,51.34,35.3,79.07,49.52,17.17,8.8,32.39-17.11,15.16-25.94Z"/>
</svg>