<?xml version="1.0" encoding="UTF-8"?>
<svg id="_圖層_1" data-name="圖層 1" xmlns="http://www.w3.org/2000/svg" viewBox="0 0 1280 354.37">
  <defs>
    <style>
      .cls-1 {
        stroke: #000;
        stroke-miterlimit: 10;
        stroke-width: 6px;
      }
    </style>
  </defs>
  <path class="cls-1" d="m223.24,293.46c-3.01,0-5.78-1.51-8.04-4.02-14.57-18.34-24.62-53.25-29.89-105-1.51-13.31-3.77-33.41-6.78-60.03-5.53,12.31-13.06,34.16-22.86,65.31-2.51,7.79-4.52,14.32-5.78,19.34-.75,3.27-1.51,6.28-2.01,9.29-1.51,3.01-3.77,4.52-6.78,4.52-8.54,0-20.6-15.57-35.67-47.22-8.04-16.08-15.32-36.92-21.35-62.54-6.78,19.09-11.3,37.68-13.56,56.27-2.51,17.08-3.52,39.19-3.52,66.31,0,10.55-3.01,15.57-8.54,15.57-7.28,0-10.8-12.56-10.8-38.18,0-7.28.75-19.84,2.76-37.43,1.51-14.32,2.51-26.12,2.51-35.67,0-1.76-.25-4.27-.25-7.79-.25-3.52-.25-6.03-.25-8.04,0-5.02,2.01-7.54,6.53-7.54,2.51,0,5.02,1.26,7.03,3.77,5.27-16.33,9.8-26.88,13.81-31.9,1.51-2.26,4.02-3.52,7.03-3.52,3.77,0,6.78,4.77,9.29,14.32,11.05,47.22,24.62,80.88,40.69,100.98,9.55-32.65,20.1-61.79,31.65-87.66,4.02-8.79,7.79-13.31,11.3-13.31,6.03,0,10.3,8.04,12.56,24.11,1.51,11.55,3.77,26.88,6.53,46.47,3.01,27.38,5.02,43.71,6.03,48.98,3.27,19.59,8.04,34.91,14.32,46.22,3.52,1,6.28,4.02,8.04,8.79,0,.5,1,2.26,2.51,5.53,1,2.51,1.76,4.27,1.76,5.27-1,5.78-3.77,8.79-8.29,8.79Z"/>
  <path class="cls-1" d="m272.48,197.76c-5.78,23.61-8.54,41.95-8.54,55.01,3.27,3.52,5.02,7.54,5.02,11.55,0,3.52-1.76,5.27-4.77,5.27-4.02,0-7.54-3.27-10.8-9.54-2.51-5.02-3.77-11.3-3.77-19.34,0-6.53,3.27-26.88,10.3-61.54-.5-3.02-.75-5.02-.75-5.78,0-2.26,1.26-4.27,3.77-5.78,9.29.5,14.07,5.02,14.07,13.06-1.26,5.02-2.76,10.55-4.52,17.08Zm9.8-96.71c-9.8-1.76-14.57-7.03-14.57-15.82,0-1.51-.25-3.02-.25-4.77.5-5.53,4.02-9.29,10.55-11.56,8.29,1.01,12.56,6.53,12.56,17.08,0,9.54-2.76,14.57-8.29,15.07Z"/>
  <path class="cls-1" d="m372.46,256.54c-9.04,7.54-18.09,11.3-27.13,11.3-10.05,0-18.34-3.52-24.62-10.3-6.53-7.03-9.54-15.57-9.54-26.12,0-12.81,3.01-25.12,9.54-36.67,6.28-11.3,14.57-20.09,24.62-26.63,5.53-3.27,11.81-5.02,19.34-5.02,8.29,0,12.56,4.02,12.81,11.55-2.26,7.03-6.28,10.3-11.81,10.3-6.03,0-10.55-1.01-13.56-3.27-17.58,12.56-26.12,28.38-26.12,47.22,0,6.53,1.26,12.06,4.27,16.33,3.01,4.27,7.03,6.28,12.56,6.28,7.03,0,12.81-1.76,17.33-5.27,1.51-1.76,4.27-4.52,8.29-8.29,3.01-3.27,5.53-5.02,7.54-5.02,1.76,0,3.52,1,5.02,3.01,1.51,2.01,2.26,3.77,2.26,5.78,0,4.02-3.77,9.04-10.8,14.82Z"/>
  <path class="cls-1" d="m491.77,272.61c-8.29,0-12.81-9.04-13.31-26.62l-1.76-44.46c-23.86,16.08-39.69,31.65-47.73,46.97-2.01,4.02-3.77,7.79-5.27,11.56-2.76,6.03-4.77,9.29-6.03,9.29-3.01,0-5.53-1.26-7.79-3.77-2.26-2.51-3.27-5.02-3.27-7.79,0-.5,0-2.01.5-4.52,0-2.51.25-4.02.25-4.52v-6.28c-.25-3.01-.25-5.27-.25-6.28,0-17.08,1.76-37.68,5.53-61.54,0-1.51,3.27-20.6,9.8-57.02l4.77-28.13c1.01-5.53,1.76-8.79,2.26-10.05.75-2.01,2.01-3.27,3.77-3.27,2.51,0,5.02,1.51,7.03,4.27,2.01,3.01,3.01,6.03,3.01,9.04,0,.75-1.26,7.28-3.52,19.59-10.05,50.24-16.33,90.18-19.34,120.07,8.04-9.8,18.59-20.09,31.65-30.9,14.82-12.06,24.87-18.09,29.89-18.09,3.01,0,5.53,1.51,7.79,4.27,2.01,3.01,3.01,6.03,3.01,9.54,0,1.76-.25,5.27-.75,10.55-.5,5.53-.5,9.8-.5,12.56,0,7.79.5,19.34,2.01,34.91.5,4.02,1.01,9.29,2.01,16.08,0,3.01-1.26,4.52-3.77,4.52Z"/>
  <path class="cls-1" d="m593.5,271.11c-19.59,0-33.66-9.29-42.2-27.88-2.01.5-4.52.75-7.03.75-8.79,0-15.83-1.51-20.85-4.77-6.28-3.52-9.29-7.28-9.29-11.3,0-5.53,2.51-8.29,7.53-8.29.75,0,3.27,1.51,7.54,4.52,4.27,2.76,8.54,4.02,12.81,4.02,1.51,0,3.27,0,4.77-.25-.75-4.02-1-7.79-1-11.56,0-12.06,3.01-23.86,9.04-35.17,6.78-12.81,15.32-19.34,25.62-19.34,6.28,0,12.56,3.52,19.09,10.05,4.52,5.02,7.03,10.8,7.03,17.33,0,10.05-4.27,19.59-12.56,29.14-7.53,8.79-16.83,15.57-27.88,20.35,5.02,10.55,12.81,15.82,23.86,15.82,2.26,0,5.78-.25,10.55-1.26,4.52-.5,7.28-.75,8.54-.75,2.01,0,3.51,1,5.02,2.76,1.51,2.01,2.26,3.77,2.26,5.78,0,6.53-7.79,10.05-22.86,10.05Zm-5.78-88.92c-2.76-2.26-5.53-3.52-8.29-3.52-5.02,0-9.29,4.02-12.81,11.56-3.51,7.54-5.27,15.57-5.27,23.61,0,3.01.25,6.53.75,10.05,8.04-3.52,15.07-8.29,20.85-14.57,5.78-5.78,8.79-12.06,8.79-18.84,0-3.01-1.51-5.78-4.02-8.29Z"/>
  <path class="cls-1" d="m671.88,101.56l-1.76,1.51c-2.76,10.8-5.28,24.87-7.28,42.2-2.51,18.59-3.52,34.41-3.52,47.22,0,30.9,1.01,56.52,3.52,76.61,0,2.51-1.26,3.77-3.77,3.77-3.52,0-7.03-3.02-10.55-8.54-3.52-5.27-5.02-9.8-5.02-13.56,0-1-.25-3.77-.25-8.79-.25-4.77-.25-7.54-.25-8.54,0-3.77.75-6.78,2.26-9.29-1-10.05-1.26-23.36-1.26-39.69,0-31.9,5.28-66.31,16.33-103.24,1-3.27,2.26-5.02,4.27-5.02,2.51,0,5.53,1.76,9.55,5.27,3.77,3.52,5.78,7.03,5.78,10.05,0,4.02-2.76,7.54-8.04,10.05Z"/>
  <path class="cls-1" d="m734.68,101.56l-1.76,1.51c-2.76,10.8-5.28,24.87-7.28,42.2-2.51,18.59-3.52,34.41-3.52,47.22,0,30.9,1.01,56.52,3.52,76.61,0,2.51-1.26,3.77-3.77,3.77-3.52,0-7.03-3.02-10.55-8.54-3.52-5.27-5.02-9.8-5.02-13.56,0-1-.25-3.77-.25-8.79-.25-4.77-.25-7.54-.25-8.54,0-3.77.75-6.78,2.26-9.29-1-10.05-1.26-23.36-1.26-39.69,0-31.9,5.28-66.31,16.33-103.24,1-3.27,2.26-5.02,4.27-5.02,2.51,0,5.53,1.76,9.55,5.27,3.77,3.52,5.78,7.03,5.78,10.05,0,4.02-2.76,7.54-8.04,10.05Z"/>
  <path class="cls-1" d="m832.89,271.11c-19.59,0-33.66-9.29-42.2-27.88-2.01.5-4.52.75-7.03.75-8.79,0-15.83-1.51-20.85-4.77-6.28-3.52-9.29-7.28-9.29-11.3,0-5.53,2.51-8.29,7.53-8.29.75,0,3.27,1.51,7.54,4.52,4.27,2.76,8.54,4.02,12.81,4.02,1.51,0,3.27,0,4.77-.25-.75-4.02-1-7.79-1-11.56,0-12.06,3.02-23.86,9.04-35.17,6.78-12.81,15.32-19.34,25.62-19.34,6.28,0,12.56,3.52,19.09,10.05,4.52,5.02,7.03,10.8,7.03,17.33,0,10.05-4.27,19.59-12.56,29.14-7.53,8.79-16.83,15.57-27.88,20.35,5.02,10.55,12.81,15.82,23.86,15.82,2.26,0,5.78-.25,10.55-1.26,4.52-.5,7.28-.75,8.54-.75,2.01,0,3.51,1,5.02,2.76,1.51,2.01,2.26,3.77,2.26,5.78,0,6.53-7.79,10.05-22.86,10.05Zm-5.78-88.92c-2.76-2.26-5.53-3.52-8.29-3.52-5.02,0-9.29,4.02-12.81,11.56-3.51,7.54-5.27,15.57-5.27,23.61,0,3.01.25,6.53.75,10.05,8.04-3.52,15.07-8.29,20.85-14.57,5.78-5.78,8.79-12.06,8.79-18.84,0-3.01-1.51-5.78-4.02-8.29Z"/>
  <path class="cls-1" d="m1049.93,252.27c-9.55,10.05-24.62,15.07-45.72,15.07-29.14,0-43.71-18.09-43.71-54.26,0-15.07,2.51-35.42,8.04-61.54,5.02-24.11,10.8-44.46,16.83-61.04,3.27-9.04,7.03-13.82,11.3-13.82,4.77,0,7.28,2.51,7.28,7.28,0,1.51-1.76,7.54-5.02,18.09-15.07,48.23-22.61,85.15-22.61,110.27,0,14.07,2.01,23.86,6.28,29.64,4.02,5.53,11.3,8.29,22.1,8.29s22.1-3.01,34.16-9.54c1-4.02,3.77-6.28,7.78-6.28,5.03,0,7.54,2.51,7.54,7.28,0,4.27-1.51,7.79-4.27,10.55Z"/>
  <path class="cls-1" d="m1102.93,197.76c-5.78,23.61-8.54,41.95-8.54,55.01,3.27,3.52,5.02,7.54,5.02,11.55,0,3.52-1.76,5.27-4.77,5.27-4.02,0-7.53-3.27-10.8-9.54-2.51-5.02-3.77-11.3-3.77-19.34,0-6.53,3.27-26.88,10.3-61.54-.5-3.02-.75-5.02-.75-5.78,0-2.26,1.26-4.27,3.77-5.78,9.3.5,14.07,5.02,14.07,13.06-1.26,5.02-2.76,10.55-4.52,17.08Zm9.8-96.71c-9.8-1.76-14.57-7.03-14.57-15.82,0-1.51-.25-3.02-.25-4.77.5-5.53,4.02-9.29,10.55-11.56,8.29,1.01,12.56,6.53,12.56,17.08,0,9.54-2.76,14.57-8.29,15.07Z"/>
  <path class="cls-1" d="m1240.58,184.95c-2.76,7.79-5.78,24.36-9.04,49.48-.75,5.53-1.01,9.29-1.01,11.3,0,1.51.25,4.02.75,7.54.5,4.02,1,6.28,1,6.78,0,6.53-3.27,10.05-9.29,10.05-2.01,0-4.02-.75-5.78-2.01-2.01-1.51-3.01-3.01-3.01-5.02,0-1.76.5-3.52,1.76-5.27.5-14.32,2.01-27.88,4.52-40.69-27.63,32.65-47.73,48.98-60.29,48.98-5.53,0-10.05-1.51-13.31-4.52-3.51-3.01-5.27-7.03-5.27-12.06s1.51-15.32,5.02-31.4c3.27-17.08,5.02-29.14,5.02-36.17v-2.76c-.25-1.01-.25-2.01-.25-2.51,0-2.01.75-3.77,2.26-5.78,1.51-1.76,3.27-2.76,5.28-2.76,4.02,0,6.28,4.52,6.28,13.57,0,5.53-2.51,21.85-7.28,48.98-1.25,7.03-1.76,11.3-1.76,12.81,0,3.52,1.25,5.27,3.77,5.27,9.8,0,22.35-8.79,37.43-26.88,11.05-13.06,21.85-28.89,32.91-47.73,1.76-3.01,3.52-4.52,5.53-4.52,4.27,0,6.53,2.51,6.53,7.03,0,2.76-.75,5.53-1.76,8.29Z"/>
</svg>