<?xml version="1.0" encoding="UTF-8"?>
<svg id="_圖層_1" data-name="圖層 1" xmlns="http://www.w3.org/2000/svg" viewBox="0 0 500 500">
  <defs>
    <style>
      .cls-1 {
        fill: #4c4be4;
        stroke: #4c4be4;
        stroke-miterlimit: 10;
        stroke-width: 8px;
      }
    </style>
  </defs>
  <path class="cls-1" d="m447.32,319.41c-26.65-13.66-54.19-27.45-76.4-47.88-19.81-18.23-31.72-41.32-43.88-64.94-11.13-21.62-23.11-44.3-41.92-60.32-10.31-8.78-25.15-20.04-39.53-17.06-13.4,2.79-24.94,15.61-33.41,25.72-3.81,4.55-7.32,9.29-10.54,14.19-1.73-10.38-4.31-20.65-9.29-29.69-18.39-33.35-60.93-24.92-82.16.27-21.93,26.03-36.44,60.88-47.24,92.82-11.31,33.43-17.4,68.63-17.85,103.93-.24,19.33,29.79,19.35,30.04,0,.71-56.8,18-112.31,46.81-161.07,5.77-9.77,12.62-21.65,23.55-26.41,10.44-4.55,18.76-.82,22.65,9.61,4.8,12.85,6.04,27.85,7.36,41.38,1.5,15.43,1.95,30.91,1.55,46.41-.49,19.35,29.39,19.3,30.04,0,.83-24.65,9.48-48.91,24.78-68.34,3.47-4.4,7.35-8.52,11.41-12.38,2.16-2.06,4.48-3.93,6.68-5.95.3-.27.7-.46,1.07-.6.72.59,2.63,1.52,2.85,1.65,8.87,4.99,16.29,11.89,22.65,19.81,13.8,17.16,22.68,38.02,32.94,57.35,11.48,21.62,25.05,41.7,43.62,57.92,23.61,20.62,51.34,35.3,79.07,49.52,17.17,8.8,32.39-17.11,15.16-25.94Z"/>
</svg>